<svg width="511" height="217" viewBox="0 0 511 217" fill="none" xmlns="http://www.w3.org/2000/svg">
<path d="M0.347847 2.59228C-0.401471 1.51846 0.716978 0.131602 1.925 0.636227L103.775 43.228C105.008 43.7438 105.996 44.7122 106.538 45.9341L140.087 121.57C141.026 123.686 140.462 126.168 138.701 127.671L34.7238 216.448C33.6395 217.374 32.0667 216.143 32.7043 214.868L78.2228 123.83L67.758 180.734L103.733 51.8804L82.5197 113.093C81.8196 115.112 79.1255 115.485 77.9025 113.733L0.347847 2.59228ZM142.65 30.5093C143.623 29.9179 144.868 30.0243 145.727 30.7729L179.796 60.4731C180.713 61.2731 180.136 62.7824 178.919 62.7671L150.181 62.4058C149.561 62.398 149.032 61.9564 148.913 61.3481L144.623 39.3433L142.508 105.063C142.463 106.442 140.589 106.821 140.012 105.568L114.557 50.2798C114.001 49.0723 114.439 47.6399 115.575 46.9497L142.65 30.5093Z" fill="#0E2240"/>
<path d="M196.511 165.472H166.018C158.247 165.472 154.833 165.59 149.888 165.826C150.595 160.645 150.83 157.231 150.83 149.225V85.295C150.83 79.4083 150.595 74.6989 149.888 69.4008C155.775 69.754 157.07 69.754 165.9 69.754H195.216C213.936 69.754 224.532 78.2309 224.532 93.4187C224.532 100.836 222.295 106.252 217.821 110.255C215.467 112.492 213.347 113.551 208.991 115.2C214.407 116.612 217.35 118.025 220.411 120.733C225.356 125.207 227.829 131.212 227.829 139.1C227.829 156.054 216.644 165.472 196.511 165.472ZM170.139 107.782H192.626C200.396 107.782 204.988 103.544 204.988 96.7153C204.988 89.7689 200.632 86.0014 192.508 86.0014H170.139V107.782ZM170.139 123.677V149.107H193.568C202.516 149.107 207.696 144.398 207.696 136.274C207.696 128.15 202.516 123.677 193.332 123.677H170.139ZM323.949 165.472H300.52C300.167 162.294 298.754 157.82 294.633 146.753C291.337 138.158 289.335 134.037 286.627 131.329C283.919 128.386 280.505 127.091 276.149 127.091H261.314V148.872C261.314 156.407 261.55 160.41 262.256 165.472H241.064C241.77 160.292 242.006 156.878 242.006 148.99V85.6482C242.006 78.8196 241.77 75.1698 241.064 69.4008C246.009 69.6363 250.129 69.754 257.311 69.754H286.627C305.111 69.754 315.708 79.1728 315.708 95.3025C315.708 103.191 313.471 109.431 309.232 113.669C306.053 116.73 303.228 118.261 296.988 120.027C304.523 122.381 306.642 125.443 316.414 148.872C318.886 154.876 320.182 157.584 323.949 165.472ZM261.314 110.49H282.389C290.395 110.49 295.575 105.428 295.575 97.6572C295.575 90.0044 291.219 86.1191 282.742 86.1191H261.314V110.49ZM335.943 149.578V85.6482C335.943 78.3487 335.708 74.6989 334.884 69.4008C339.593 69.6363 342.536 69.754 351.013 69.754H373.972C388.453 69.754 399.167 73.2861 406.82 80.7033C415.414 89.0625 419.888 101.307 419.888 116.73C419.888 132.86 415.179 145.693 406.113 154.523C398.343 161.94 387.982 165.472 374.089 165.472H351.013C343.007 165.472 339.829 165.59 335.001 165.826C335.708 160.763 335.943 157.113 335.943 149.578ZM355.37 148.401H372.559C381.271 148.401 387.158 146.282 391.632 141.572C396.93 136.039 399.756 127.562 399.756 117.083C399.756 106.37 397.283 98.599 392.221 93.4187C387.747 88.827 381.86 86.8256 372.441 86.8256H355.37V148.401ZM506.786 147.577V166.297C502.076 165.708 497.72 165.472 489.126 165.472H444.504C436.851 165.472 433.201 165.59 428.139 165.826V148.872C430.729 146.399 433.79 142.985 438.264 137.452L474.88 92.2414C476.999 89.7689 478.529 87.8852 479.707 86.7078C477.587 86.7078 474.173 86.8256 471.818 86.8256H449.331C442.149 86.8256 435.909 87.1788 432.024 87.6497V68.9299C437.675 69.5185 442.62 69.754 449.331 69.754H488.301C493.128 69.754 499.604 69.6363 504.667 69.4008V85.7659C501.841 88.5916 498.309 92.7123 493.953 98.0104L457.926 142.75C456.866 144.045 455.218 145.928 452.981 148.519C454.629 148.401 458.161 148.401 460.869 148.401H489.126C496.072 148.401 501.488 148.165 506.786 147.577Z" fill="#0E2240"/>
<path d="M9.78528 51.7201C9.13724 51.0957 9.57923 50 10.4791 50H29.5L70.2526 107.227C70.9575 108.217 69.6193 109.37 68.7442 108.527L9.78528 51.7201Z" fill="#0E2240"/>
</svg>
